<svg width="60" height="58" viewBox="0 0 60 58" fill="none" xmlns="http://www.w3.org/2000/svg">
<path d="M58.5545 17.0154C57.2727 16.3508 55.9364 15.7969 54.5455 15.3262V48.64C51.4364 47.5046 48.2455 46.9231 45 46.9231C39.8182 46.9231 34.6909 48.4185 30 51.2985V17.7908C25.5818 15.2154 20.4818 13.6923 15 13.6923C10.1182 13.6923 5.50909 14.9108 1.44545 17.0154C0.545454 17.4585 0 18.4277 0 19.4523V52.9046C0 54.5108 1.28182 55.6462 2.72727 55.6462C3.16364 55.6462 3.6 55.5354 4.03636 55.3139C7.33636 53.5692 11.0455 52.4615 15 52.4615C20.6455 52.4615 25.8545 54.7323 30 58C34.1455 54.7323 39.3545 52.4615 45 52.4615C48.9545 52.4615 52.6636 53.5692 55.9636 55.3415C56.4 55.5631 56.8364 55.6738 57.2727 55.6738C58.6909 55.6738 60 54.5385 60 52.9323V19.4523C60 18.4277 59.4545 17.4585 58.5545 17.0154ZM24.5455 48.64C21.4364 47.5046 18.2455 46.9231 15 46.9231C11.7545 46.9231 8.56364 47.5046 5.45455 48.64V21.1969C8.48182 19.8954 11.6727 19.2308 15 19.2308C18.2727 19.2308 21.5182 19.9231 24.5455 21.2246V48.64ZM49.0909 4L35.4545 17.8462V44.1538L49.0909 31.6923V4Z" fill="#4F2EE8"/>
</svg>
